<svg xmlns="http://www.w3.org/2000/svg" xmlns:xlink="http://www.w3.org/1999/xlink" viewBox="0 0 150 181"><defs><style>.cls-1{fill:#fff;}.cls-2{fill:url(#Безымянный_градиент);}</style><linearGradient id="Безымянный_градиент" x1="-412.16" y1="438.45" x2="-412.16" y2="437.45" gradientTransform="matrix(130, 0, 0, -130, 53655.37, 57007.88)" gradientUnits="userSpaceOnUse"><stop offset="0" stop-opacity="0.1"/><stop offset="1"/></linearGradient></defs><g id="Слой_2" data-name="Слой 2"><g id="Слой_1-2" data-name="Слой 1"><path class="cls-1" d="M75,176.93l-17.11-30.3-.41-.74-.83-.21a72.55,72.55,0,0,1-21.8-9.7A73.36,73.36,0,0,1,17.54,120a72.91,72.91,0,0,1-3.07-85.84A73,73,0,0,1,34.19,14.47a72.9,72.9,0,0,1,81.62,0,73,73,0,0,1,19.72,19.72A72.92,72.92,0,0,1,132.46,120,73.36,73.36,0,0,1,115.15,136a72.55,72.55,0,0,1-21.8,9.7l-.83.21-.41.74Z"/><path d="M75,172.86l15.36-27.21.84-1.48,1.65-.43A70.23,70.23,0,0,0,114,134.31,71,71,0,1,0,8,98.57a70.4,70.4,0,0,0,11.1,20.22A71.28,71.28,0,0,0,36,134.31a70.48,70.48,0,0,0,21.19,9.43l1.65.43.83,1.48L75,172.86M75,181,56.15,147.61a75,75,0,1,1,37.7,0Z"/><path class="cls-2" d="M75,10A65,65,0,1,1,10,75,65,65,0,0,1,75,10Z"/><path class="cls-1" d="M75,28A47,47,0,1,1,28,75,47,47,0,0,1,75,28Z"/><path d="M45,53H65V68H45Z"/><path d="M45,83H65V98H45Z"/><path d="M65,68H85V83H65Z"/><path d="M85,83h20V98H85Z"/><path d="M85,53h20V68H85Z"/></g></g></svg>