<svg xmlns="http://www.w3.org/2000/svg" xmlns:xlink="http://www.w3.org/1999/xlink" width="150" height="181" viewBox="0 0 150 181"><defs><linearGradient id="a" x1="0.5" x2="0.5" y2="1" gradientUnits="objectBoundingBox"><stop offset="0" stop-color="#007236" stop-opacity="0.102"/><stop offset="1" stop-color="#007236"/></linearGradient></defs><g transform="translate(-918 263.174)"><g transform="translate(918 -263.174)"><path d="M75,176.932l-17.106-30.3-.418-.74-.823-.213A72.969,72.969,0,0,1,14.466,34.187,73.219,73.219,0,0,1,46.586,7.736a72.9,72.9,0,0,1,69.228,6.73,73.218,73.218,0,0,1,26.45,32.12,73.053,73.053,0,0,1-48.918,99.09l-.823.213-.418.74Z" fill="#fff"/><path d="M75,172.863l15.365-27.217.835-1.48,1.645-.426a70.5,70.5,0,0,0,21.2-9.43,70.988,70.988,0,1,0-78.09,0,70.5,70.5,0,0,0,21.2,9.43l1.645.426.835,1.48L75,172.863M75,181,56.152,147.612a75,75,0,1,1,37.7,0Z" fill="#007236"/></g><circle cx="65" cy="65" r="65" transform="translate(928 -253.174)" fill="url(#a)"/><circle cx="47" cy="47" r="47" transform="translate(946 -235.174)" fill="#fff"/><g transform="translate(954.429 -226.745)"><path d="M0,0H77.142V77.142H0Z" fill="none"/><path d="M54.171,7.246A4.8,4.8,0,0,0,49.607,4H14.25A4.833,4.833,0,0,0,9.686,7.245L3,26.5V52.214a3.224,3.224,0,0,0,3.214,3.214H9.429a3.224,3.224,0,0,0,3.214-3.214V49H51.214v3.214a3.224,3.224,0,0,0,3.214,3.214h3.214a3.224,3.224,0,0,0,3.214-3.214V26.5ZM14.25,39.357a4.815,4.815,0,1,1,3.411-1.41,4.821,4.821,0,0,1-3.411,1.41Zm35.357,0a4.815,4.815,0,1,1,3.411-1.41,4.821,4.821,0,0,1-3.411,1.41ZM9.429,23.286,14.25,8.821H49.607l4.821,14.464Z" transform="translate(6.643 8.857)" fill="#007236"/></g></g></svg>