<svg xmlns="http://www.w3.org/2000/svg" width="82" height="139" viewBox="0 0 82 139"><g transform="translate(-9064 604)"><rect width="82" height="139" transform="translate(9064 -604)" fill="#007236"/><path d="M726.542,7671.043v-1.637h3.447v3.851a4.206,4.206,0,0,1-1.476,1.055,4.533,4.533,0,0,1-1.918.441,3.738,3.738,0,0,1-2.069-.577,3.91,3.91,0,0,1-1.421-1.726,6.481,6.481,0,0,1-.524-2.707,6.391,6.391,0,0,1,.531-2.729,3.977,3.977,0,0,1,1.378-1.693,3.6,3.6,0,0,1,2.027-.561,3.4,3.4,0,0,1,2.271.722,3.44,3.44,0,0,1,1.1,2.119l-1.582.362a2.049,2.049,0,0,0-.653-1.14,1.714,1.714,0,0,0-1.134-.4,2.014,2.014,0,0,0-1.655.794,3.854,3.854,0,0,0-.633,2.423,4.362,4.362,0,0,0,.686,2.655,1.878,1.878,0,0,0,1.589.786,2.43,2.43,0,0,0,.972-.221,3.018,3.018,0,0,0,.9-.6v-1.223Z" transform="translate(8351.005 -8167.081)" fill="#fff"/><path d="M1474.33,7686.815v-9.664h3.368a4.691,4.691,0,0,1,1.846.261,2.044,2.044,0,0,1,.91.9,3.129,3.129,0,0,1,.356,1.538,2.872,2.872,0,0,1-.544,1.826,2.419,2.419,0,0,1-1.546.87,4.032,4.032,0,0,1,.85.809,11.268,11.268,0,0,1,.917,1.572l.962,1.885h-1.909l-1.158-2.1a13.344,13.344,0,0,0-.849-1.426,1.258,1.258,0,0,0-.475-.4,2.15,2.15,0,0,0-.8-.11h-.329v4.035Zm1.6-5.577h1.186a5.945,5.945,0,0,0,1.384-.1.883.883,0,0,0,.481-.385,1.43,1.43,0,0,0,.184-.772,1.324,1.324,0,0,0-.184-.74.932.932,0,0,0-.5-.386,6.268,6.268,0,0,0-1.3-.073h-1.252Z" transform="translate(7609.055 -8179.306)" fill="#fff"/><path d="M2104.777,7686.815h-1.735l-.693-2.189h-3.173l-.655,2.189h-1.7l3.086-9.664h1.694Zm-2.944-3.823-1.094-3.586-1.074,3.586Z" transform="translate(6994.747 -8179.306)" fill="#fff"/><path d="M2837.65,7686.815v-9.664h1.6v9.664Z" transform="translate(6263.684 -8179.306)" fill="#fff"/><path d="M3156.1,7686.815v-9.664h1.556l3.243,6.454v-6.454h1.49v9.664h-1.608l-3.19-6.3v6.3Z" transform="translate(5949.401 -8179.306)" fill="#fff"/><path d="M690.286,8704.465h-1.734l-.694-2.189h-3.172l-.655,2.189h-1.7l3.086-9.664h1.694Zm-2.943-3.824-1.094-3.586-1.074,3.586Z" transform="translate(8390.722 -9183.456)" fill="#fff"/><path d="M1430.1,8710.356v-9.585h1.6v7.95h3.981v1.635Z" transform="translate(7652.706 -9189.348)" fill="#fff"/><path d="M2021.291,8710.356v-9.585h1.6v7.95h3.982v1.635Z" transform="translate(7069.291 -9189.348)" fill="#fff"/><path d="M2605.591,8704.465V8694.8h1.6v9.664Z" transform="translate(6492.689 -9183.456)" fill="#fff"/><path d="M2869.887,8704.465h-1.733l-.694-2.189h-3.173l-.655,2.189h-1.7l3.086-9.664h1.694Zm-2.943-3.824-1.094-3.586-1.074,3.586Z" transform="translate(6239.695 -9183.456)" fill="#fff"/><path d="M3607.72,8704.465V8694.8h1.556l3.243,6.453V8694.8h1.49v9.664H3612.4l-3.19-6.3v6.3Z" transform="translate(5503.72 -9183.456)" fill="#fff"/><path d="M4274.353,8688.657l1.55.6a4.342,4.342,0,0,1-1.206,2.37,3.024,3.024,0,0,1-2.077.749,3.081,3.081,0,0,1-2.512-1.193,5.777,5.777,0,0,1-1.106-3.718,6.051,6.051,0,0,1,1.114-3.87,3.165,3.165,0,0,1,2.606-1.213,3.016,3.016,0,0,1,2.23.908,3.953,3.953,0,0,1,.937,1.918l-1.581.464a2.135,2.135,0,0,0-.6-1.2,1.515,1.515,0,0,0-1.067-.419,1.7,1.7,0,0,0-1.433.764,4.4,4.4,0,0,0-.555,2.525,4.7,4.7,0,0,0,.54,2.6,1.648,1.648,0,0,0,1.4.77,1.452,1.452,0,0,0,1.095-.489A3.1,3.1,0,0,0,4274.353,8688.657Z" transform="translate(4851.13 -9171.202)" fill="#fff"/><path d="M4974,8704.465V8694.8h5.879v1.635H4975.6v2.143h3.982v1.629H4975.6v2.623h4.43v1.635Z" transform="translate(4155.315 -9183.456)" fill="#fff"/><path d="M3161.025,3984.659s3.306.7,7.006-3,3-7,3-7-3.306-.7-7,3S3161.025,3984.66,3161.025,3984.659Z" transform="translate(5944.574 -4525.875)" fill="#fff"/><path d="M1153.109,5471.656s3.057-1.437,3.777-6.62-1.833-7.4-1.833-7.4-3.059,1.438-3.775,6.618S1153.111,5471.658,1153.109,5471.656Z" transform="translate(7927.987 -5989.239)" fill="#fff"/><path d="M1651.5,4973.2s3.059-1.438,3.777-6.62-1.832-7.4-1.832-7.4-3.057,1.439-3.776,6.62S1651.5,4973.2,1651.5,4973.2Z" transform="translate(7436.147 -5497.393)" fill="#fff"/><path d="M2150.015,4474.719s3.057-1.438,3.777-6.621-1.833-7.4-1.833-7.4-3.058,1.438-3.775,6.62S2150.015,4474.72,2150.015,4474.719Z" transform="translate(6944.19 -5005.526)" fill="#fff"/><path d="M2648.42,3976.269s3.058-1.438,3.777-6.621-1.832-7.4-1.832-7.4-3.057,1.438-3.776,6.62S2648.422,3976.27,2648.42,3976.269Z" transform="translate(6452.34 -4513.689)" fill="#fff"/><path d="M1383.38,6308.552s1.44-3.057,6.621-3.777,7.4,1.832,7.4,1.832-1.437,3.059-6.618,3.777S1383.38,6308.552,1383.38,6308.552Z" transform="translate(7698.792 -6825.011)" fill="#fff"/><path d="M1881.89,5810.1s1.439-3.058,6.62-3.777,7.4,1.832,7.4,1.832-1.437,3.059-6.62,3.775S1881.89,5810.1,1881.89,5810.1Z" transform="translate(7206.832 -6333.174)" fill="#fff"/><path d="M2380.29,5311.6s1.44-3.057,6.62-3.778,7.4,1.832,7.4,1.832-1.437,3.06-6.619,3.776S2380.29,5311.6,2380.29,5311.6Z" transform="translate(6714.979 -5841.287)" fill="#fff"/><path d="M2878.821,4813.185s1.438-3.057,6.62-3.776,7.4,1.832,7.4,1.832-1.439,3.06-6.62,3.776S2878.821,4813.185,2878.821,4813.185Z" transform="translate(6222.997 -5349.482)" fill="#fff"/><path d="M8.652,0,0,8.651" transform="translate(9117.33 -561.699)" fill="none" stroke="#fff" stroke-width="1"/><path d="M19.987,0,0,19.987" transform="translate(9105.708 -570.227)" fill="none" stroke="#fff" stroke-width="1"/><path d="M14.021,0,0,14.02" transform="translate(9112.029 -565.97)" fill="none" stroke="#fff" stroke-width="1"/><path d="M14.021,0,0,14.021" transform="translate(9116.619 -561.337)" fill="none" stroke="#fff" stroke-width="1"/><path d="M19.986,0,0,19.987" transform="translate(9114.339 -561.378)" fill="none" stroke="#fff" stroke-width="1"/><path d="M21.254,0,0,21.255" transform="translate(9104.22 -574.631)" fill="none" stroke="#fff" stroke-width="1"/><path d="M21.256,0,4.11,17.145,0,21.255" transform="translate(9117.476 -561.148)" fill="none" stroke="#fff" stroke-width="1"/><path d="M549.33,6643.478l8.129-8.129,1.33,1.33-7.234,7.234Z" transform="translate(8521.958 -7151.326)" fill="#fff"/></g></svg>