<svg xmlns="http://www.w3.org/2000/svg" width="67.797" height="67.573" viewBox="0 0 67.797 67.573"><g transform="translate(10958.712 1020.984)"><path d="M3161.02,3984.66s3.306.7,7.006-3,3-7,3-7-3.306-.7-7,3S3161.02,3984.66,3161.02,3984.66Z" transform="translate(-14085.426 -4971.875)" fill="#fff"/><path d="M1153.11,5471.66s3.057-1.437,3.777-6.62-1.833-7.4-1.833-7.4-3.059,1.438-3.775,6.618S1153.11,5471.66,1153.11,5471.66Z" transform="translate(-12102.014 -6435.239)" fill="#fff"/><path d="M1651.5,4973.2s3.059-1.438,3.777-6.62-1.832-7.4-1.832-7.4-3.057,1.439-3.776,6.62S1651.5,4973.2,1651.5,4973.2Z" transform="translate(-12593.854 -5943.393)" fill="#fff"/><path d="M2150.01,4474.72s3.057-1.438,3.777-6.621-1.833-7.4-1.833-7.4-3.058,1.438-3.775,6.62S2150.01,4474.72,2150.01,4474.72Z" transform="translate(-13085.811 -5451.526)" fill="#fff"/><path d="M2648.42,3976.27s3.058-1.438,3.777-6.621-1.832-7.4-1.832-7.4-3.057,1.438-3.776,6.62S2648.42,3976.27,2648.42,3976.27Z" transform="translate(-13577.66 -4959.689)" fill="#fff"/><path d="M1383.38,6308.55s1.44-3.057,6.621-3.777,7.4,1.832,7.4,1.832-1.437,3.059-6.618,3.777S1383.38,6308.55,1383.38,6308.55Z" transform="translate(-12331.208 -7271.011)" fill="#fff"/><path d="M1881.89,5810.1s1.439-3.058,6.62-3.777,7.4,1.832,7.4,1.832-1.437,3.059-6.62,3.775S1881.89,5810.1,1881.89,5810.1Z" transform="translate(-12823.168 -6779.174)" fill="#fff"/><path d="M2380.29,5311.6s1.44-3.057,6.62-3.778,7.4,1.832,7.4,1.832-1.437,3.06-6.619,3.776S2380.29,5311.6,2380.29,5311.6Z" transform="translate(-13315.021 -6287.287)" fill="#fff"/><path d="M2878.82,4813.19s1.438-3.057,6.62-3.776,7.4,1.832,7.4,1.832-1.439,3.06-6.62,3.776S2878.82,4813.19,2878.82,4813.19Z" transform="translate(-13807.003 -5795.482)" fill="#fff"/><path d="M8.652,0,0,8.651" transform="translate(-10912.67 -1007.699)" fill="none" stroke="#fff" stroke-width="1"/><path d="M19.987,0,0,19.987" transform="translate(-10924.292 -1016.227)" fill="none" stroke="#fff" stroke-width="1"/><path d="M14.021,0,0,14.02" transform="translate(-10917.971 -1011.97)" fill="none" stroke="#fff" stroke-width="1"/><path d="M14.021,0,0,14.021" transform="translate(-10913.381 -1007.337)" fill="none" stroke="#fff" stroke-width="1"/><path d="M19.986,0,0,19.987" transform="translate(-10915.661 -1007.378)" fill="none" stroke="#fff" stroke-width="1"/><path d="M21.254,0,0,21.255" transform="translate(-10925.78 -1020.631)" fill="none" stroke="#fff" stroke-width="1"/><path d="M21.256,0,4.11,17.145,0,21.255" transform="translate(-10912.524 -1007.148)" fill="none" stroke="#fff" stroke-width="1"/><path d="M549.33,6643.48l8.129-8.129,1.33,1.33-7.234,7.234Z" transform="translate(-11508.042 -7597.326)" fill="#fff"/></g></svg>