<svg xmlns="http://www.w3.org/2000/svg" xmlns:xlink="http://www.w3.org/1999/xlink" width="260.573" height="234.675" viewBox="0 0 260.573 234.675"><defs><linearGradient id="a" x1="0.5" x2="0.5" y2="1" gradientUnits="objectBoundingBox"><stop offset="0" stop-color="#fff" stop-opacity="0"/><stop offset="1" stop-color="gray"/></linearGradient><linearGradient id="b" x1="0.5" x2="0.5" y2="1" gradientUnits="objectBoundingBox"><stop offset="0" stop-color="#007236" stop-opacity="0.102"/><stop offset="1" stop-color="#007236"/></linearGradient></defs><g transform="translate(-214 261.838)"><path d="M56.152,147.612a75,75,0,1,1,37.7,0L75,181Z" transform="translate(364.869 -261.838) rotate(43)" fill="url(#a)"/><g transform="translate(214 -247)" fill="#fff"><path d="M 74.99970245361328 176.9315185546875 L 57.89329528808594 146.6287841796875 L 57.47553253173828 145.8887329101563 L 56.6528434753418 145.67578125 C 48.89784240722656 143.6684112548828 41.56360626220703 140.4060516357422 34.85384368896484 135.9793548583984 C 28.25172424316406 131.6236724853516 22.42572402954102 126.2568359375 17.53765296936035 120.0279083251953 C 12.60198593139648 113.7382659912109 8.76003360748291 106.7422866821289 6.118509769439697 99.23426055908203 C 3.385676383972168 91.46664428710938 2.000009775161743 83.31295776367188 2.000009775161743 74.99969482421875 C 2.000009775161743 65.14405059814453 3.929842948913574 55.5842170715332 7.73593807220459 46.58573913574219 C 9.565319061279297 42.26066970825195 11.82967662811279 38.08895492553711 14.46615219116211 34.18647766113281 C 17.07791519165039 30.32059669494629 20.07741355895996 26.6851921081543 23.38131904602051 23.38131141662598 C 26.68519973754883 20.07740592956543 30.32060432434082 17.07790565490723 34.18648529052734 14.46614456176758 C 38.08896255493164 11.82966804504395 42.26067733764648 9.565311431884766 46.58574676513672 7.735930442810059 C 55.58422470092773 3.929835081100464 65.14405822753906 2.000001907348633 74.99970245361328 2.000001907348633 C 84.85556030273438 2.000001907348633 94.41558074951172 3.929835081100464 103.414176940918 7.735930442810059 C 107.7393417358398 9.565311431884766 111.9111022949219 11.82969188690186 115.813606262207 14.46614456176758 C 119.6795349121094 17.07790565490723 123.3149642944336 20.07740592956543 126.6188888549805 23.38131141662598 C 129.9228210449219 26.68521690368652 132.9223480224609 30.32059669494629 135.5341339111328 34.18650054931641 C 138.1706085205078 38.08895492553711 140.4349822998047 42.26066970825195 142.2643890380859 46.58576202392578 C 146.0704650878906 55.5842170715332 148.0003204345703 65.14402770996094 148.0003204345703 74.99969482421875 C 148.0003204345703 83.31295776367188 146.6146240234375 91.46664428710938 143.8817443847656 99.23426055908203 C 141.2401733398438 106.7422866821289 137.3981475830078 113.7383117675781 132.4623870849609 120.0279541015625 C 127.5742263793945 126.2568817138672 121.7481307983398 131.6237640380859 115.1458892822266 135.9794616699219 C 108.4359893798828 140.4061737060547 101.1016311645508 143.6685180664063 93.34651184082031 145.6759033203125 L 92.52379608154297 145.8888549804688 L 92.10603332519531 146.62890625 L 74.99970245361328 176.9315185546875 Z" stroke="none"/><path d="M 74.99970245361328 172.8631439208984 L 90.36438751220703 145.6457214355469 L 91.19991302490234 144.1656188964844 L 92.8453369140625 143.7397155761719 C 100.3865966796875 141.7876892089844 107.5190200805664 138.6150665283203 114.0445175170898 134.3100128173828 C 120.4667053222656 130.0730895996094 126.1340179443359 124.8525085449219 130.8889923095703 118.7932205200195 C 135.6895751953125 112.6758499145508 139.4262084960938 105.871955871582 141.9951019287109 98.57048034667969 C 144.6527557373047 91.01666259765625 146.0003051757813 83.08629608154297 146.0003051757813 74.99969482421875 C 146.0003051757813 65.41316223144531 144.1236267089844 56.11545562744141 140.42236328125 47.36487579345703 C 138.6432800292969 43.15871810913086 136.4410705566406 39.10155868530273 133.8768920898438 35.30611038208008 C 131.3363647460938 31.54569053649902 128.4186248779297 28.00942802429199 125.204704284668 24.7955322265625 C 121.9907836914063 21.58163833618164 118.4544677734375 18.66390228271484 114.6939926147461 16.1234016418457 C 110.8984909057617 13.55921745300293 106.84130859375 11.35700702667236 102.6350708007813 9.577954292297363 C 93.88433837890625 5.876690864562988 84.58644104003906 4.000006675720215 74.99970245361328 4.000006675720215 C 65.41317749023438 4.000006675720215 56.1154670715332 5.876690864562988 47.36486434936523 9.577927589416504 C 43.15870666503906 11.35700702667236 39.10154724121094 13.55921745300293 35.30609893798828 16.1234016418457 C 31.54567909240723 18.66390228271484 28.0094165802002 21.58163833618164 24.7955207824707 24.79550743103027 C 21.58162689208984 28.00940132141113 18.66388893127441 31.54569053649902 16.12339019775391 35.30611038208008 C 13.55920505523682 39.10155868530273 11.35699462890625 43.15871810913086 9.577916145324707 47.36487579345703 C 5.876678943634033 56.11548233032227 3.99999475479126 65.41316223144531 3.99999475479126 74.99969482421875 C 3.99999475479126 83.08631896972656 5.34752082824707 91.01666259765625 8.005152702331543 98.57048034667969 C 10.57396793365479 105.8719253540039 14.310546875 112.6758499145508 19.11104774475098 118.7931900024414 C 23.86594200134277 124.8524551391602 29.53315353393555 130.0730285644531 35.95523071289063 134.3099212646484 C 42.48059844970703 138.6149749755859 49.61288833618164 141.7875823974609 57.15402221679688 143.7396087646484 L 58.79941558837891 144.16552734375 L 59.63494110107422 145.6456146240234 L 74.99970245361328 172.8631439208984 M 74.99970245361328 180.9999084472656 L 56.15165328979492 147.6119842529297 C 23.85417938232422 139.2517395019531 -5.306846105668228e-06 109.911247253418 -5.306846105668228e-06 74.99969482421875 C -5.306846105668228e-06 33.57900619506836 33.57899475097656 6.855211722722743e-06 74.99970245361328 6.855211722722743e-06 C 116.4213104248047 6.855211722722743e-06 150.0003051757813 33.57900619506836 150.0003051757813 74.99969482421875 C 150.0003051757813 109.911247253418 126.1457061767578 139.2518463134766 93.84767913818359 147.6120910644531 L 74.99970245361328 180.9999084472656 Z" stroke="none" fill="#007236"/></g><circle cx="65" cy="65" r="65" transform="translate(224 -237)" fill="url(#b)"/><circle cx="47" cy="47" r="47" transform="translate(242 -219)" fill="#fff"/><g transform="translate(250.429 -210.571)"><path d="M0,0H77.142V77.142H0Z" fill="none"/><path d="M54.171,7.246A4.8,4.8,0,0,0,49.607,4H14.25A4.833,4.833,0,0,0,9.686,7.246L3,26.5V52.214a3.224,3.224,0,0,0,3.214,3.214H9.429a3.224,3.224,0,0,0,3.214-3.214V49H51.214v3.214a3.224,3.224,0,0,0,3.214,3.214h3.214a3.224,3.224,0,0,0,3.214-3.214V26.5ZM14.25,39.357a4.821,4.821,0,1,1,4.821-4.821A4.815,4.815,0,0,1,14.25,39.357Zm35.357,0a4.821,4.821,0,1,1,4.821-4.821A4.815,4.815,0,0,1,49.607,39.357ZM9.429,23.286,14.25,8.821H49.607l4.821,14.464Z" transform="translate(6.643 8.857)" fill="#007236"/></g></g></svg>